<svg xmlns="http://www.w3.org/2000/svg" width="80" height="80" viewBox="0 0 80 80">

  <defs>
    <linearGradient id="svg-defs-gradient-icon-automation" x1="15" y1="65" x2="65" y2="15" gradientUnits="userSpaceOnUse">
      <stop offset="0" stop-color="#7141F1"/>
      <stop offset="0.7" stop-color="#4D6BD8"/>
      <stop offset="1" stop-color="#3183E2"/>
    </linearGradient>
    <mask id="svg-defs-mask-icon-automation">
      <path class="uk-preserve" d="M46.737,8.378c-4.205,0-.719,5.523-8.786,6.183-9.587.777-4.252-7.879-12.791-3.534s1.6,5.135-4.616,12.485-8.563-2.58-11.507,6.548,4.711,2.473,5.512,12.037-7.868,4.228-3.534,12.778,5.147-1.625,12.5,4.582-2.567,8.562,6.572,11.507,2.462-4.711,12.025-5.512,4.228,7.879,12.767,3.533-1.637-5.135,4.582-12.5,8.562,2.579,11.506-6.56-4.711-2.474-5.512-12.037,7.868-4.24,3.534-12.779-5.147,1.638-12.5-4.581,2.567-8.562-6.572-11.495A11.6,11.6,0,0,0,46.7,8.366" fill="none" stroke="#fff" stroke-linejoin="round" stroke-width="2"/>
      <path class="uk-preserve" d="M37.645,32.934,47,38.728a1.26,1.26,0,0,1,0,2.144L37.574,46.69a1.261,1.261,0,0,1-1.92-1.072V33.97a1.261,1.261,0,0,1,1.991-1.036Z" fill="none" stroke="#fff" stroke-width="2"/>
     </mask>
  </defs>

  <rect class="uk-preserve" x="3" y="3" width="74" height="74" fill="url(#svg-defs-gradient-icon-automation)" mask="url(#svg-defs-mask-icon-automation)"/>

</svg>
